<?xml version="1.0" encoding="utf-8"?>
<svg xmlns="http://www.w3.org/2000/svg" xmlns:xlink="http://www.w3.org/1999/xlink" width="600" height="400" viewBox="0 0 2400 1600">
<defs>
  <clipPath id="clip020">
    <rect x="0" y="0" width="2400" height="1600"/>
  </clipPath>
</defs>
<path clip-path="url(#clip020)" d="
M0 1600 L2400 1600 L2400 0 L0 0  Z
  " fill="#ffffff" fill-rule="evenodd" fill-opacity="1"/>
<defs>
  <clipPath id="clip021">
    <rect x="480" y="0" width="1681" height="1600"/>
  </clipPath>
</defs>
<path clip-path="url(#clip020)" d="
M178.867 1486.45 L2352.76 1486.45 L2352.76 47.2441 L178.867 47.2441  Z
  " fill="#ffffff" fill-rule="evenodd" fill-opacity="1"/>
<defs>
  <clipPath id="clip022">
    <rect x="178" y="47" width="2175" height="1440"/>
  </clipPath>
</defs>
<polyline clip-path="url(#clip022)" style="stroke:#000000; stroke-linecap:butt; stroke-linejoin:round; stroke-width:2; stroke-opacity:0.1; fill:none" points="
  292.632,1486.45 292.632,47.2441 
  "/>
<polyline clip-path="url(#clip022)" style="stroke:#000000; stroke-linecap:butt; stroke-linejoin:round; stroke-width:2; stroke-opacity:0.1; fill:none" points="
  767.345,1486.45 767.345,47.2441 
  "/>
<polyline clip-path="url(#clip022)" style="stroke:#000000; stroke-linecap:butt; stroke-linejoin:round; stroke-width:2; stroke-opacity:0.1; fill:none" points="
  1242.06,1486.45 1242.06,47.2441 
  "/>
<polyline clip-path="url(#clip022)" style="stroke:#000000; stroke-linecap:butt; stroke-linejoin:round; stroke-width:2; stroke-opacity:0.1; fill:none" points="
  1716.77,1486.45 1716.77,47.2441 
  "/>
<polyline clip-path="url(#clip022)" style="stroke:#000000; stroke-linecap:butt; stroke-linejoin:round; stroke-width:2; stroke-opacity:0.1; fill:none" points="
  2191.48,1486.45 2191.48,47.2441 
  "/>
<polyline clip-path="url(#clip020)" style="stroke:#000000; stroke-linecap:butt; stroke-linejoin:round; stroke-width:4; stroke-opacity:1; fill:none" points="
  178.867,1486.45 2352.76,1486.45 
  "/>
<polyline clip-path="url(#clip020)" style="stroke:#000000; stroke-linecap:butt; stroke-linejoin:round; stroke-width:4; stroke-opacity:1; fill:none" points="
  292.632,1486.45 292.632,1467.55 
  "/>
<polyline clip-path="url(#clip020)" style="stroke:#000000; stroke-linecap:butt; stroke-linejoin:round; stroke-width:4; stroke-opacity:1; fill:none" points="
  767.345,1486.45 767.345,1467.55 
  "/>
<polyline clip-path="url(#clip020)" style="stroke:#000000; stroke-linecap:butt; stroke-linejoin:round; stroke-width:4; stroke-opacity:1; fill:none" points="
  1242.06,1486.45 1242.06,1467.55 
  "/>
<polyline clip-path="url(#clip020)" style="stroke:#000000; stroke-linecap:butt; stroke-linejoin:round; stroke-width:4; stroke-opacity:1; fill:none" points="
  1716.77,1486.45 1716.77,1467.55 
  "/>
<polyline clip-path="url(#clip020)" style="stroke:#000000; stroke-linecap:butt; stroke-linejoin:round; stroke-width:4; stroke-opacity:1; fill:none" points="
  2191.48,1486.45 2191.48,1467.55 
  "/>
<path clip-path="url(#clip020)" d="M246.695 1532.02 L276.371 1532.02 L276.371 1535.95 L246.695 1535.95 L246.695 1532.02 Z" fill="#000000" fill-rule="evenodd" fill-opacity="1" /><path clip-path="url(#clip020)" d="M290.491 1544.91 L306.811 1544.91 L306.811 1548.85 L284.866 1548.85 L284.866 1544.91 Q287.528 1542.16 292.112 1537.53 Q296.718 1532.88 297.899 1531.53 Q300.144 1529.01 301.024 1527.27 Q301.926 1525.51 301.926 1523.82 Q301.926 1521.07 299.982 1519.33 Q298.061 1517.6 294.959 1517.6 Q292.76 1517.6 290.306 1518.36 Q287.876 1519.13 285.098 1520.68 L285.098 1515.95 Q287.922 1514.82 290.376 1514.24 Q292.829 1513.66 294.866 1513.66 Q300.237 1513.66 303.431 1516.35 Q306.625 1519.03 306.625 1523.52 Q306.625 1525.65 305.815 1527.57 Q305.028 1529.47 302.922 1532.07 Q302.343 1532.74 299.241 1535.95 Q296.139 1539.15 290.491 1544.91 Z" fill="#000000" fill-rule="evenodd" fill-opacity="1" /><path clip-path="url(#clip020)" d="M326.625 1517.37 Q323.014 1517.37 321.186 1520.93 Q319.38 1524.47 319.38 1531.6 Q319.38 1538.71 321.186 1542.27 Q323.014 1545.82 326.625 1545.82 Q330.26 1545.82 332.065 1542.27 Q333.894 1538.71 333.894 1531.6 Q333.894 1524.47 332.065 1520.93 Q330.26 1517.37 326.625 1517.37 M326.625 1513.66 Q332.435 1513.66 335.491 1518.27 Q338.57 1522.85 338.57 1531.6 Q338.57 1540.33 335.491 1544.94 Q332.435 1549.52 326.625 1549.52 Q320.815 1549.52 317.736 1544.94 Q314.681 1540.33 314.681 1531.6 Q314.681 1522.85 317.736 1518.27 Q320.815 1513.66 326.625 1513.66 Z" fill="#000000" fill-rule="evenodd" fill-opacity="1" /><path clip-path="url(#clip020)" d="M721.407 1532.02 L751.083 1532.02 L751.083 1535.95 L721.407 1535.95 L721.407 1532.02 Z" fill="#000000" fill-rule="evenodd" fill-opacity="1" /><path clip-path="url(#clip020)" d="M761.986 1544.91 L769.625 1544.91 L769.625 1518.55 L761.315 1520.21 L761.315 1515.95 L769.578 1514.29 L774.254 1514.29 L774.254 1544.91 L781.893 1544.91 L781.893 1548.85 L761.986 1548.85 L761.986 1544.91 Z" fill="#000000" fill-rule="evenodd" fill-opacity="1" /><path clip-path="url(#clip020)" d="M801.338 1517.37 Q797.726 1517.37 795.898 1520.93 Q794.092 1524.47 794.092 1531.6 Q794.092 1538.71 795.898 1542.27 Q797.726 1545.82 801.338 1545.82 Q804.972 1545.82 806.777 1542.27 Q808.606 1538.71 808.606 1531.6 Q808.606 1524.47 806.777 1520.93 Q804.972 1517.37 801.338 1517.37 M801.338 1513.66 Q807.148 1513.66 810.203 1518.27 Q813.282 1522.85 813.282 1531.6 Q813.282 1540.33 810.203 1544.94 Q807.148 1549.52 801.338 1549.52 Q795.527 1549.52 792.449 1544.94 Q789.393 1540.33 789.393 1531.6 Q789.393 1522.85 792.449 1518.27 Q795.527 1513.66 801.338 1513.66 Z" fill="#000000" fill-rule="evenodd" fill-opacity="1" /><path clip-path="url(#clip020)" d="M1242.06 1517.37 Q1238.45 1517.37 1236.62 1520.93 Q1234.81 1524.47 1234.81 1531.6 Q1234.81 1538.71 1236.62 1542.27 Q1238.45 1545.82 1242.06 1545.82 Q1245.69 1545.82 1247.5 1542.27 Q1249.33 1538.71 1249.33 1531.6 Q1249.33 1524.47 1247.5 1520.93 Q1245.69 1517.37 1242.06 1517.37 M1242.06 1513.66 Q1247.87 1513.66 1250.92 1518.27 Q1254 1522.85 1254 1531.6 Q1254 1540.33 1250.92 1544.94 Q1247.87 1549.52 1242.06 1549.52 Q1236.25 1549.52 1233.17 1544.94 Q1230.11 1540.33 1230.11 1531.6 Q1230.11 1522.85 1233.17 1518.27 Q1236.25 1513.66 1242.06 1513.66 Z" fill="#000000" fill-rule="evenodd" fill-opacity="1" /><path clip-path="url(#clip020)" d="M1691.46 1544.91 L1699.1 1544.91 L1699.1 1518.55 L1690.79 1520.21 L1690.79 1515.95 L1699.05 1514.29 L1703.73 1514.29 L1703.73 1544.91 L1711.36 1544.91 L1711.36 1548.85 L1691.46 1548.85 L1691.46 1544.91 Z" fill="#000000" fill-rule="evenodd" fill-opacity="1" /><path clip-path="url(#clip020)" d="M1730.81 1517.37 Q1727.2 1517.37 1725.37 1520.93 Q1723.56 1524.47 1723.56 1531.6 Q1723.56 1538.71 1725.37 1542.27 Q1727.2 1545.82 1730.81 1545.82 Q1734.44 1545.82 1736.25 1542.27 Q1738.08 1538.71 1738.08 1531.6 Q1738.08 1524.47 1736.25 1520.93 Q1734.44 1517.37 1730.81 1517.37 M1730.81 1513.66 Q1736.62 1513.66 1739.67 1518.27 Q1742.75 1522.85 1742.75 1531.6 Q1742.75 1540.33 1739.67 1544.94 Q1736.62 1549.52 1730.81 1549.52 Q1725 1549.52 1721.92 1544.94 Q1718.86 1540.33 1718.86 1531.6 Q1718.86 1522.85 1721.92 1518.27 Q1725 1513.66 1730.81 1513.66 Z" fill="#000000" fill-rule="evenodd" fill-opacity="1" /><path clip-path="url(#clip020)" d="M2170.25 1544.91 L2186.57 1544.91 L2186.57 1548.85 L2164.63 1548.85 L2164.63 1544.91 Q2167.29 1542.16 2171.87 1537.53 Q2176.48 1532.88 2177.66 1531.53 Q2179.91 1529.01 2180.79 1527.27 Q2181.69 1525.51 2181.69 1523.82 Q2181.69 1521.07 2179.75 1519.33 Q2177.82 1517.6 2174.72 1517.6 Q2172.52 1517.6 2170.07 1518.36 Q2167.64 1519.13 2164.86 1520.68 L2164.86 1515.95 Q2167.69 1514.82 2170.14 1514.24 Q2172.59 1513.66 2174.63 1513.66 Q2180 1513.66 2183.19 1516.35 Q2186.39 1519.03 2186.39 1523.52 Q2186.39 1525.65 2185.58 1527.57 Q2184.79 1529.47 2182.68 1532.07 Q2182.11 1532.74 2179 1535.95 Q2175.9 1539.15 2170.25 1544.91 Z" fill="#000000" fill-rule="evenodd" fill-opacity="1" /><path clip-path="url(#clip020)" d="M2206.39 1517.37 Q2202.78 1517.37 2200.95 1520.93 Q2199.14 1524.47 2199.14 1531.6 Q2199.14 1538.71 2200.95 1542.27 Q2202.78 1545.82 2206.39 1545.82 Q2210.02 1545.82 2211.83 1542.27 Q2213.66 1538.71 2213.66 1531.6 Q2213.66 1524.47 2211.83 1520.93 Q2210.02 1517.37 2206.39 1517.37 M2206.39 1513.66 Q2212.2 1513.66 2215.25 1518.27 Q2218.33 1522.85 2218.33 1531.6 Q2218.33 1540.33 2215.25 1544.94 Q2212.2 1549.52 2206.39 1549.52 Q2200.58 1549.52 2197.5 1544.94 Q2194.44 1540.33 2194.44 1531.6 Q2194.44 1522.85 2197.5 1518.27 Q2200.58 1513.66 2206.39 1513.66 Z" fill="#000000" fill-rule="evenodd" fill-opacity="1" /><polyline clip-path="url(#clip022)" style="stroke:#000000; stroke-linecap:butt; stroke-linejoin:round; stroke-width:2; stroke-opacity:0.1; fill:none" points="
  178.867,1393.46 2352.76,1393.46 
  "/>
<polyline clip-path="url(#clip022)" style="stroke:#000000; stroke-linecap:butt; stroke-linejoin:round; stroke-width:2; stroke-opacity:0.1; fill:none" points="
  178.867,1068.69 2352.76,1068.69 
  "/>
<polyline clip-path="url(#clip022)" style="stroke:#000000; stroke-linecap:butt; stroke-linejoin:round; stroke-width:2; stroke-opacity:0.1; fill:none" points="
  178.867,743.927 2352.76,743.927 
  "/>
<polyline clip-path="url(#clip022)" style="stroke:#000000; stroke-linecap:butt; stroke-linejoin:round; stroke-width:2; stroke-opacity:0.1; fill:none" points="
  178.867,419.161 2352.76,419.161 
  "/>
<polyline clip-path="url(#clip022)" style="stroke:#000000; stroke-linecap:butt; stroke-linejoin:round; stroke-width:2; stroke-opacity:0.1; fill:none" points="
  178.867,94.3959 2352.76,94.3959 
  "/>
<polyline clip-path="url(#clip020)" style="stroke:#000000; stroke-linecap:butt; stroke-linejoin:round; stroke-width:4; stroke-opacity:1; fill:none" points="
  178.867,1486.45 178.867,47.2441 
  "/>
<polyline clip-path="url(#clip020)" style="stroke:#000000; stroke-linecap:butt; stroke-linejoin:round; stroke-width:4; stroke-opacity:1; fill:none" points="
  178.867,1393.46 197.764,1393.46 
  "/>
<polyline clip-path="url(#clip020)" style="stroke:#000000; stroke-linecap:butt; stroke-linejoin:round; stroke-width:4; stroke-opacity:1; fill:none" points="
  178.867,1068.69 197.764,1068.69 
  "/>
<polyline clip-path="url(#clip020)" style="stroke:#000000; stroke-linecap:butt; stroke-linejoin:round; stroke-width:4; stroke-opacity:1; fill:none" points="
  178.867,743.927 197.764,743.927 
  "/>
<polyline clip-path="url(#clip020)" style="stroke:#000000; stroke-linecap:butt; stroke-linejoin:round; stroke-width:4; stroke-opacity:1; fill:none" points="
  178.867,419.161 197.764,419.161 
  "/>
<polyline clip-path="url(#clip020)" style="stroke:#000000; stroke-linecap:butt; stroke-linejoin:round; stroke-width:4; stroke-opacity:1; fill:none" points="
  178.867,94.3959 197.764,94.3959 
  "/>
<path clip-path="url(#clip020)" d="M50.9921 1393.91 L80.6679 1393.91 L80.6679 1397.84 L50.9921 1397.84 L50.9921 1393.91 Z" fill="#000000" fill-rule="evenodd" fill-opacity="1" /><path clip-path="url(#clip020)" d="M94.7882 1406.8 L111.108 1406.8 L111.108 1410.74 L89.1632 1410.74 L89.1632 1406.8 Q91.8252 1404.05 96.4085 1399.42 Q101.015 1394.77 102.196 1393.42 Q104.441 1390.9 105.321 1389.16 Q106.223 1387.41 106.223 1385.72 Q106.223 1382.96 104.279 1381.22 Q102.358 1379.49 99.2558 1379.49 Q97.0567 1379.49 94.603 1380.25 Q92.1725 1381.02 89.3947 1382.57 L89.3947 1377.84 Q92.2188 1376.71 94.6724 1376.13 Q97.1261 1375.55 99.1632 1375.55 Q104.534 1375.55 107.728 1378.24 Q110.922 1380.92 110.922 1385.41 Q110.922 1387.54 110.112 1389.47 Q109.325 1391.36 107.219 1393.96 Q106.64 1394.63 103.538 1397.84 Q100.436 1401.04 94.7882 1406.8 Z" fill="#000000" fill-rule="evenodd" fill-opacity="1" /><path clip-path="url(#clip020)" d="M130.922 1379.26 Q127.311 1379.26 125.482 1382.82 Q123.677 1386.36 123.677 1393.49 Q123.677 1400.6 125.482 1404.16 Q127.311 1407.71 130.922 1407.71 Q134.556 1407.71 136.362 1404.16 Q138.191 1400.6 138.191 1393.49 Q138.191 1386.36 136.362 1382.82 Q134.556 1379.26 130.922 1379.26 M130.922 1375.55 Q136.732 1375.55 139.788 1380.16 Q142.867 1384.74 142.867 1393.49 Q142.867 1402.22 139.788 1406.83 Q136.732 1411.41 130.922 1411.41 Q125.112 1411.41 122.033 1406.83 Q118.978 1402.22 118.978 1393.49 Q118.978 1384.74 122.033 1380.16 Q125.112 1375.55 130.922 1375.55 Z" fill="#000000" fill-rule="evenodd" fill-opacity="1" /><path clip-path="url(#clip020)" d="M50.9921 1069.14 L80.6679 1069.14 L80.6679 1073.08 L50.9921 1073.08 L50.9921 1069.14 Z" fill="#000000" fill-rule="evenodd" fill-opacity="1" /><path clip-path="url(#clip020)" d="M91.5706 1082.04 L99.2095 1082.04 L99.2095 1055.67 L90.8993 1057.34 L90.8993 1053.08 L99.1632 1051.41 L103.839 1051.41 L103.839 1082.04 L111.478 1082.04 L111.478 1085.97 L91.5706 1085.97 L91.5706 1082.04 Z" fill="#000000" fill-rule="evenodd" fill-opacity="1" /><path clip-path="url(#clip020)" d="M130.922 1054.49 Q127.311 1054.49 125.482 1058.06 Q123.677 1061.6 123.677 1068.73 Q123.677 1075.83 125.482 1079.4 Q127.311 1082.94 130.922 1082.94 Q134.556 1082.94 136.362 1079.4 Q138.191 1075.83 138.191 1068.73 Q138.191 1061.6 136.362 1058.06 Q134.556 1054.49 130.922 1054.49 M130.922 1050.79 Q136.732 1050.79 139.788 1055.39 Q142.867 1059.98 142.867 1068.73 Q142.867 1077.45 139.788 1082.06 Q136.732 1086.64 130.922 1086.64 Q125.112 1086.64 122.033 1082.06 Q118.978 1077.45 118.978 1068.73 Q118.978 1059.98 122.033 1055.39 Q125.112 1050.79 130.922 1050.79 Z" fill="#000000" fill-rule="evenodd" fill-opacity="1" /><path clip-path="url(#clip020)" d="M130.922 729.726 Q127.311 729.726 125.482 733.291 Q123.677 736.832 123.677 743.962 Q123.677 751.068 125.482 754.633 Q127.311 758.175 130.922 758.175 Q134.556 758.175 136.362 754.633 Q138.191 751.068 138.191 743.962 Q138.191 736.832 136.362 733.291 Q134.556 729.726 130.922 729.726 M130.922 726.022 Q136.732 726.022 139.788 730.629 Q142.867 735.212 142.867 743.962 Q142.867 752.689 139.788 757.295 Q136.732 761.878 130.922 761.878 Q125.112 761.878 122.033 757.295 Q118.978 752.689 118.978 743.962 Q118.978 735.212 122.033 730.629 Q125.112 726.022 130.922 726.022 Z" fill="#000000" fill-rule="evenodd" fill-opacity="1" /><path clip-path="url(#clip020)" d="M91.5706 432.506 L99.2095 432.506 L99.2095 406.141 L90.8993 407.807 L90.8993 403.548 L99.1632 401.881 L103.839 401.881 L103.839 432.506 L111.478 432.506 L111.478 436.441 L91.5706 436.441 L91.5706 432.506 Z" fill="#000000" fill-rule="evenodd" fill-opacity="1" /><path clip-path="url(#clip020)" d="M130.922 404.96 Q127.311 404.96 125.482 408.525 Q123.677 412.067 123.677 419.196 Q123.677 426.303 125.482 429.867 Q127.311 433.409 130.922 433.409 Q134.556 433.409 136.362 429.867 Q138.191 426.303 138.191 419.196 Q138.191 412.067 136.362 408.525 Q134.556 404.96 130.922 404.96 M130.922 401.256 Q136.732 401.256 139.788 405.863 Q142.867 410.446 142.867 419.196 Q142.867 427.923 139.788 432.529 Q136.732 437.113 130.922 437.113 Q125.112 437.113 122.033 432.529 Q118.978 427.923 118.978 419.196 Q118.978 410.446 122.033 405.863 Q125.112 401.256 130.922 401.256 Z" fill="#000000" fill-rule="evenodd" fill-opacity="1" /><path clip-path="url(#clip020)" d="M94.7882 107.741 L111.108 107.741 L111.108 111.676 L89.1632 111.676 L89.1632 107.741 Q91.8252 104.986 96.4085 100.356 Q101.015 95.7037 102.196 94.3612 Q104.441 91.838 105.321 90.1019 Q106.223 88.3427 106.223 86.6529 Q106.223 83.8982 104.279 82.1621 Q102.358 80.426 99.2558 80.426 Q97.0567 80.426 94.603 81.1899 Q92.1725 81.9538 89.3947 83.5047 L89.3947 78.7825 Q92.2188 77.6483 94.6724 77.0696 Q97.1261 76.4909 99.1632 76.4909 Q104.534 76.4909 107.728 79.176 Q110.922 81.8612 110.922 86.3519 Q110.922 88.4816 110.112 90.4028 Q109.325 92.301 107.219 94.8936 Q106.64 95.5648 103.538 98.7824 Q100.436 101.977 94.7882 107.741 Z" fill="#000000" fill-rule="evenodd" fill-opacity="1" /><path clip-path="url(#clip020)" d="M130.922 80.1946 Q127.311 80.1946 125.482 83.7594 Q123.677 87.301 123.677 94.4306 Q123.677 101.537 125.482 105.102 Q127.311 108.643 130.922 108.643 Q134.556 108.643 136.362 105.102 Q138.191 101.537 138.191 94.4306 Q138.191 87.301 136.362 83.7594 Q134.556 80.1946 130.922 80.1946 M130.922 76.4909 Q136.732 76.4909 139.788 81.0973 Q142.867 85.6806 142.867 94.4306 Q142.867 103.157 139.788 107.764 Q136.732 112.347 130.922 112.347 Q125.112 112.347 122.033 107.764 Q118.978 103.157 118.978 94.4306 Q118.978 85.6806 122.033 81.0973 Q125.112 76.4909 130.922 76.4909 Z" fill="#000000" fill-rule="evenodd" fill-opacity="1" /><circle clip-path="url(#clip022)" cx="1731.35" cy="215.168" r="14" fill="#009af9" fill-rule="evenodd" fill-opacity="1" stroke="#000000" stroke-opacity="1" stroke-width="3.2"/>
<circle clip-path="url(#clip022)" cx="1485.16" cy="1409.69" r="14" fill="#009af9" fill-rule="evenodd" fill-opacity="1" stroke="#000000" stroke-opacity="1" stroke-width="3.2"/>
<circle clip-path="url(#clip022)" cx="1434.66" cy="89.1016" r="14" fill="#009af9" fill-rule="evenodd" fill-opacity="1" stroke="#000000" stroke-opacity="1" stroke-width="3.2"/>
<circle clip-path="url(#clip022)" cx="2225.69" cy="716.798" r="14" fill="#009af9" fill-rule="evenodd" fill-opacity="1" stroke="#000000" stroke-opacity="1" stroke-width="3.2"/>
<circle clip-path="url(#clip022)" cx="1109.17" cy="94.4395" r="14" fill="#009af9" fill-rule="evenodd" fill-opacity="1" stroke="#000000" stroke-opacity="1" stroke-width="3.2"/>
<circle clip-path="url(#clip022)" cx="865.52" cy="1283.68" r="14" fill="#009af9" fill-rule="evenodd" fill-opacity="1" stroke="#000000" stroke-opacity="1" stroke-width="3.2"/>
<circle clip-path="url(#clip022)" cx="345.467" cy="1036.67" r="14" fill="#009af9" fill-rule="evenodd" fill-opacity="1" stroke="#000000" stroke-opacity="1" stroke-width="3.2"/>
<circle clip-path="url(#clip022)" cx="550.15" cy="1186.91" r="14" fill="#009af9" fill-rule="evenodd" fill-opacity="1" stroke="#000000" stroke-opacity="1" stroke-width="3.2"/>
<circle clip-path="url(#clip022)" cx="280.756" cy="927.79" r="14" fill="#009af9" fill-rule="evenodd" fill-opacity="1" stroke="#000000" stroke-opacity="1" stroke-width="3.2"/>
<circle clip-path="url(#clip022)" cx="2196.22" cy="1065.57" r="14" fill="#009af9" fill-rule="evenodd" fill-opacity="1" stroke="#000000" stroke-opacity="1" stroke-width="3.2"/>
<circle clip-path="url(#clip022)" cx="364.35" cy="635.331" r="14" fill="#009af9" fill-rule="evenodd" fill-opacity="1" stroke="#000000" stroke-opacity="1" stroke-width="3.2"/>
<circle clip-path="url(#clip022)" cx="2093.33" cy="570.311" r="14" fill="#009af9" fill-rule="evenodd" fill-opacity="1" stroke="#000000" stroke-opacity="1" stroke-width="3.2"/>
<circle clip-path="url(#clip022)" cx="801.116" cy="126.651" r="14" fill="#009af9" fill-rule="evenodd" fill-opacity="1" stroke="#000000" stroke-opacity="1" stroke-width="3.2"/>
<circle clip-path="url(#clip022)" cx="1925.6" cy="1203.24" r="14" fill="#009af9" fill-rule="evenodd" fill-opacity="1" stroke="#000000" stroke-opacity="1" stroke-width="3.2"/>
<circle clip-path="url(#clip022)" cx="2109.13" cy="1026.07" r="14" fill="#009af9" fill-rule="evenodd" fill-opacity="1" stroke="#000000" stroke-opacity="1" stroke-width="3.2"/>
<circle clip-path="url(#clip022)" cx="1668.88" cy="1324.5" r="14" fill="#009af9" fill-rule="evenodd" fill-opacity="1" stroke="#000000" stroke-opacity="1" stroke-width="3.2"/>
<circle clip-path="url(#clip022)" cx="505.427" cy="1032.27" r="14" fill="#009af9" fill-rule="evenodd" fill-opacity="1" stroke="#000000" stroke-opacity="1" stroke-width="3.2"/>
<circle clip-path="url(#clip022)" cx="538.881" cy="1160.83" r="14" fill="#009af9" fill-rule="evenodd" fill-opacity="1" stroke="#000000" stroke-opacity="1" stroke-width="3.2"/>
<circle clip-path="url(#clip022)" cx="1573.82" cy="1338.62" r="14" fill="#009af9" fill-rule="evenodd" fill-opacity="1" stroke="#000000" stroke-opacity="1" stroke-width="3.2"/>
<circle clip-path="url(#clip022)" cx="917.93" cy="1337.44" r="14" fill="#009af9" fill-rule="evenodd" fill-opacity="1" stroke="#000000" stroke-opacity="1" stroke-width="3.2"/>
<circle clip-path="url(#clip022)" cx="546.966" cy="1141.68" r="14" fill="#009af9" fill-rule="evenodd" fill-opacity="1" stroke="#000000" stroke-opacity="1" stroke-width="3.2"/>
<circle clip-path="url(#clip022)" cx="1533.32" cy="1380.45" r="14" fill="#009af9" fill-rule="evenodd" fill-opacity="1" stroke="#000000" stroke-opacity="1" stroke-width="3.2"/>
<circle clip-path="url(#clip022)" cx="1717.74" cy="197.53" r="14" fill="#009af9" fill-rule="evenodd" fill-opacity="1" stroke="#000000" stroke-opacity="1" stroke-width="3.2"/>
<circle clip-path="url(#clip022)" cx="2175.9" cy="750.078" r="14" fill="#009af9" fill-rule="evenodd" fill-opacity="1" stroke="#000000" stroke-opacity="1" stroke-width="3.2"/>
<circle clip-path="url(#clip022)" cx="306.316" cy="824.277" r="14" fill="#009af9" fill-rule="evenodd" fill-opacity="1" stroke="#000000" stroke-opacity="1" stroke-width="3.2"/>
<circle clip-path="url(#clip022)" cx="419.523" cy="403.769" r="14" fill="#009af9" fill-rule="evenodd" fill-opacity="1" stroke="#000000" stroke-opacity="1" stroke-width="3.2"/>
<circle clip-path="url(#clip022)" cx="275.573" cy="710.24" r="14" fill="#009af9" fill-rule="evenodd" fill-opacity="1" stroke="#000000" stroke-opacity="1" stroke-width="3.2"/>
<circle clip-path="url(#clip022)" cx="331.163" cy="505.387" r="14" fill="#009af9" fill-rule="evenodd" fill-opacity="1" stroke="#000000" stroke-opacity="1" stroke-width="3.2"/>
<circle clip-path="url(#clip022)" cx="1577.83" cy="142.227" r="14" fill="#009af9" fill-rule="evenodd" fill-opacity="1" stroke="#000000" stroke-opacity="1" stroke-width="3.2"/>
<circle clip-path="url(#clip022)" cx="849.868" cy="152.463" r="14" fill="#009af9" fill-rule="evenodd" fill-opacity="1" stroke="#000000" stroke-opacity="1" stroke-width="3.2"/>
<circle clip-path="url(#clip022)" cx="1485.38" cy="1375.11" r="14" fill="#009af9" fill-rule="evenodd" fill-opacity="1" stroke="#000000" stroke-opacity="1" stroke-width="3.2"/>
<circle clip-path="url(#clip022)" cx="2081" cy="536.047" r="14" fill="#009af9" fill-rule="evenodd" fill-opacity="1" stroke="#000000" stroke-opacity="1" stroke-width="3.2"/>
<circle clip-path="url(#clip022)" cx="2084.15" cy="515.828" r="14" fill="#009af9" fill-rule="evenodd" fill-opacity="1" stroke="#000000" stroke-opacity="1" stroke-width="3.2"/>
<circle clip-path="url(#clip022)" cx="388.313" cy="1065.71" r="14" fill="#009af9" fill-rule="evenodd" fill-opacity="1" stroke="#000000" stroke-opacity="1" stroke-width="3.2"/>
<circle clip-path="url(#clip022)" cx="1604.4" cy="1368.42" r="14" fill="#009af9" fill-rule="evenodd" fill-opacity="1" stroke="#000000" stroke-opacity="1" stroke-width="3.2"/>
<circle clip-path="url(#clip022)" cx="240.392" cy="701.815" r="14" fill="#009af9" fill-rule="evenodd" fill-opacity="1" stroke="#000000" stroke-opacity="1" stroke-width="3.2"/>
<circle clip-path="url(#clip022)" cx="456.353" cy="472.141" r="14" fill="#009af9" fill-rule="evenodd" fill-opacity="1" stroke="#000000" stroke-opacity="1" stroke-width="3.2"/>
<circle clip-path="url(#clip022)" cx="334.614" cy="1077.86" r="14" fill="#009af9" fill-rule="evenodd" fill-opacity="1" stroke="#000000" stroke-opacity="1" stroke-width="3.2"/>
<circle clip-path="url(#clip022)" cx="456.852" cy="1138.95" r="14" fill="#009af9" fill-rule="evenodd" fill-opacity="1" stroke="#000000" stroke-opacity="1" stroke-width="3.2"/>
<circle clip-path="url(#clip022)" cx="319.735" cy="785.376" r="14" fill="#009af9" fill-rule="evenodd" fill-opacity="1" stroke="#000000" stroke-opacity="1" stroke-width="3.2"/>
<circle clip-path="url(#clip022)" cx="2091.84" cy="425.072" r="14" fill="#009af9" fill-rule="evenodd" fill-opacity="1" stroke="#000000" stroke-opacity="1" stroke-width="3.2"/>
<circle clip-path="url(#clip022)" cx="2241.12" cy="850.059" r="14" fill="#009af9" fill-rule="evenodd" fill-opacity="1" stroke="#000000" stroke-opacity="1" stroke-width="3.2"/>
<circle clip-path="url(#clip022)" cx="1454.42" cy="1384.87" r="14" fill="#009af9" fill-rule="evenodd" fill-opacity="1" stroke="#000000" stroke-opacity="1" stroke-width="3.2"/>
<circle clip-path="url(#clip022)" cx="2044.91" cy="1050.39" r="14" fill="#009af9" fill-rule="evenodd" fill-opacity="1" stroke="#000000" stroke-opacity="1" stroke-width="3.2"/>
<circle clip-path="url(#clip022)" cx="695.042" cy="266.112" r="14" fill="#009af9" fill-rule="evenodd" fill-opacity="1" stroke="#000000" stroke-opacity="1" stroke-width="3.2"/>
<circle clip-path="url(#clip022)" cx="1003.19" cy="1445.72" r="14" fill="#009af9" fill-rule="evenodd" fill-opacity="1" stroke="#000000" stroke-opacity="1" stroke-width="3.2"/>
<circle clip-path="url(#clip022)" cx="458.258" cy="344.013" r="14" fill="#009af9" fill-rule="evenodd" fill-opacity="1" stroke="#000000" stroke-opacity="1" stroke-width="3.2"/>
<circle clip-path="url(#clip022)" cx="424.934" cy="410.103" r="14" fill="#009af9" fill-rule="evenodd" fill-opacity="1" stroke="#000000" stroke-opacity="1" stroke-width="3.2"/>
<circle clip-path="url(#clip022)" cx="1991.55" cy="1081.86" r="14" fill="#009af9" fill-rule="evenodd" fill-opacity="1" stroke="#000000" stroke-opacity="1" stroke-width="3.2"/>
<circle clip-path="url(#clip022)" cx="1210.77" cy="150.212" r="14" fill="#009af9" fill-rule="evenodd" fill-opacity="1" stroke="#000000" stroke-opacity="1" stroke-width="3.2"/>
<circle clip-path="url(#clip022)" cx="910.076" cy="1388.3" r="14" fill="#009af9" fill-rule="evenodd" fill-opacity="1" stroke="#000000" stroke-opacity="1" stroke-width="3.2"/>
<circle clip-path="url(#clip022)" cx="846.5" cy="168.858" r="14" fill="#009af9" fill-rule="evenodd" fill-opacity="1" stroke="#000000" stroke-opacity="1" stroke-width="3.2"/>
<circle clip-path="url(#clip022)" cx="1245.64" cy="1408.48" r="14" fill="#009af9" fill-rule="evenodd" fill-opacity="1" stroke="#000000" stroke-opacity="1" stroke-width="3.2"/>
<circle clip-path="url(#clip022)" cx="2013.67" cy="324.887" r="14" fill="#009af9" fill-rule="evenodd" fill-opacity="1" stroke="#000000" stroke-opacity="1" stroke-width="3.2"/>
<circle clip-path="url(#clip022)" cx="297.4" cy="677.917" r="14" fill="#009af9" fill-rule="evenodd" fill-opacity="1" stroke="#000000" stroke-opacity="1" stroke-width="3.2"/>
<circle clip-path="url(#clip022)" cx="366.441" cy="471.915" r="14" fill="#009af9" fill-rule="evenodd" fill-opacity="1" stroke="#000000" stroke-opacity="1" stroke-width="3.2"/>
<circle clip-path="url(#clip022)" cx="2086.8" cy="1087.17" r="14" fill="#009af9" fill-rule="evenodd" fill-opacity="1" stroke="#000000" stroke-opacity="1" stroke-width="3.2"/>
<circle clip-path="url(#clip022)" cx="2090.32" cy="454.638" r="14" fill="#009af9" fill-rule="evenodd" fill-opacity="1" stroke="#000000" stroke-opacity="1" stroke-width="3.2"/>
<circle clip-path="url(#clip022)" cx="589.18" cy="1230.24" r="14" fill="#009af9" fill-rule="evenodd" fill-opacity="1" stroke="#000000" stroke-opacity="1" stroke-width="3.2"/>
<circle clip-path="url(#clip022)" cx="425.402" cy="1082.91" r="14" fill="#009af9" fill-rule="evenodd" fill-opacity="1" stroke="#000000" stroke-opacity="1" stroke-width="3.2"/>
<circle clip-path="url(#clip022)" cx="406.985" cy="729.834" r="14" fill="#009af9" fill-rule="evenodd" fill-opacity="1" stroke="#000000" stroke-opacity="1" stroke-width="3.2"/>
<circle clip-path="url(#clip022)" cx="1152.75" cy="1394.22" r="14" fill="#009af9" fill-rule="evenodd" fill-opacity="1" stroke="#000000" stroke-opacity="1" stroke-width="3.2"/>
<circle clip-path="url(#clip022)" cx="2181.68" cy="845.063" r="14" fill="#009af9" fill-rule="evenodd" fill-opacity="1" stroke="#000000" stroke-opacity="1" stroke-width="3.2"/>
<circle clip-path="url(#clip022)" cx="2291.23" cy="669.332" r="14" fill="#009af9" fill-rule="evenodd" fill-opacity="1" stroke="#000000" stroke-opacity="1" stroke-width="3.2"/>
<circle clip-path="url(#clip022)" cx="1008.77" cy="97.6212" r="14" fill="#009af9" fill-rule="evenodd" fill-opacity="1" stroke="#000000" stroke-opacity="1" stroke-width="3.2"/>
<circle clip-path="url(#clip022)" cx="254.765" cy="760.49" r="14" fill="#009af9" fill-rule="evenodd" fill-opacity="1" stroke="#000000" stroke-opacity="1" stroke-width="3.2"/>
<circle clip-path="url(#clip022)" cx="397.552" cy="470.023" r="14" fill="#009af9" fill-rule="evenodd" fill-opacity="1" stroke="#000000" stroke-opacity="1" stroke-width="3.2"/>
<circle clip-path="url(#clip022)" cx="1088.86" cy="1359.16" r="14" fill="#009af9" fill-rule="evenodd" fill-opacity="1" stroke="#000000" stroke-opacity="1" stroke-width="3.2"/>
<circle clip-path="url(#clip022)" cx="429.401" cy="995.836" r="14" fill="#009af9" fill-rule="evenodd" fill-opacity="1" stroke="#000000" stroke-opacity="1" stroke-width="3.2"/>
<circle clip-path="url(#clip022)" cx="2191.98" cy="608.878" r="14" fill="#009af9" fill-rule="evenodd" fill-opacity="1" stroke="#000000" stroke-opacity="1" stroke-width="3.2"/>
<circle clip-path="url(#clip022)" cx="577.248" cy="1234.41" r="14" fill="#009af9" fill-rule="evenodd" fill-opacity="1" stroke="#000000" stroke-opacity="1" stroke-width="3.2"/>
<circle clip-path="url(#clip022)" cx="1397.65" cy="1414.33" r="14" fill="#009af9" fill-rule="evenodd" fill-opacity="1" stroke="#000000" stroke-opacity="1" stroke-width="3.2"/>
<circle clip-path="url(#clip022)" cx="1411.05" cy="118.684" r="14" fill="#009af9" fill-rule="evenodd" fill-opacity="1" stroke="#000000" stroke-opacity="1" stroke-width="3.2"/>
<circle clip-path="url(#clip022)" cx="376.233" cy="522.423" r="14" fill="#009af9" fill-rule="evenodd" fill-opacity="1" stroke="#000000" stroke-opacity="1" stroke-width="3.2"/>
<circle clip-path="url(#clip022)" cx="385.373" cy="919.422" r="14" fill="#009af9" fill-rule="evenodd" fill-opacity="1" stroke="#000000" stroke-opacity="1" stroke-width="3.2"/>
<circle clip-path="url(#clip022)" cx="367.168" cy="481.649" r="14" fill="#009af9" fill-rule="evenodd" fill-opacity="1" stroke="#000000" stroke-opacity="1" stroke-width="3.2"/>
<circle clip-path="url(#clip022)" cx="1490.67" cy="1323.1" r="14" fill="#009af9" fill-rule="evenodd" fill-opacity="1" stroke="#000000" stroke-opacity="1" stroke-width="3.2"/>
<circle clip-path="url(#clip022)" cx="628.469" cy="257.312" r="14" fill="#009af9" fill-rule="evenodd" fill-opacity="1" stroke="#000000" stroke-opacity="1" stroke-width="3.2"/>
<circle clip-path="url(#clip022)" cx="1341.2" cy="1386.23" r="14" fill="#009af9" fill-rule="evenodd" fill-opacity="1" stroke="#000000" stroke-opacity="1" stroke-width="3.2"/>
<circle clip-path="url(#clip022)" cx="485.077" cy="1090.49" r="14" fill="#009af9" fill-rule="evenodd" fill-opacity="1" stroke="#000000" stroke-opacity="1" stroke-width="3.2"/>
<circle clip-path="url(#clip022)" cx="2166.75" cy="1000.52" r="14" fill="#009af9" fill-rule="evenodd" fill-opacity="1" stroke="#000000" stroke-opacity="1" stroke-width="3.2"/>
<circle clip-path="url(#clip022)" cx="2003.74" cy="411.862" r="14" fill="#009af9" fill-rule="evenodd" fill-opacity="1" stroke="#000000" stroke-opacity="1" stroke-width="3.2"/>
<circle clip-path="url(#clip022)" cx="498.907" cy="299.136" r="14" fill="#009af9" fill-rule="evenodd" fill-opacity="1" stroke="#000000" stroke-opacity="1" stroke-width="3.2"/>
<circle clip-path="url(#clip022)" cx="2175.83" cy="833.073" r="14" fill="#009af9" fill-rule="evenodd" fill-opacity="1" stroke="#000000" stroke-opacity="1" stroke-width="3.2"/>
<circle clip-path="url(#clip022)" cx="1221.38" cy="125.127" r="14" fill="#009af9" fill-rule="evenodd" fill-opacity="1" stroke="#000000" stroke-opacity="1" stroke-width="3.2"/>
<circle clip-path="url(#clip022)" cx="1938.89" cy="1218.59" r="14" fill="#009af9" fill-rule="evenodd" fill-opacity="1" stroke="#000000" stroke-opacity="1" stroke-width="3.2"/>
<circle clip-path="url(#clip022)" cx="579.215" cy="1288.61" r="14" fill="#009af9" fill-rule="evenodd" fill-opacity="1" stroke="#000000" stroke-opacity="1" stroke-width="3.2"/>
<circle clip-path="url(#clip022)" cx="1585" cy="155.6" r="14" fill="#009af9" fill-rule="evenodd" fill-opacity="1" stroke="#000000" stroke-opacity="1" stroke-width="3.2"/>
<circle clip-path="url(#clip022)" cx="439.988" cy="912.95" r="14" fill="#009af9" fill-rule="evenodd" fill-opacity="1" stroke="#000000" stroke-opacity="1" stroke-width="3.2"/>
<circle clip-path="url(#clip022)" cx="1117.13" cy="87.9763" r="14" fill="#009af9" fill-rule="evenodd" fill-opacity="1" stroke="#000000" stroke-opacity="1" stroke-width="3.2"/>
<circle clip-path="url(#clip022)" cx="820.754" cy="1328.89" r="14" fill="#009af9" fill-rule="evenodd" fill-opacity="1" stroke="#000000" stroke-opacity="1" stroke-width="3.2"/>
<circle clip-path="url(#clip022)" cx="1898.52" cy="312.361" r="14" fill="#009af9" fill-rule="evenodd" fill-opacity="1" stroke="#000000" stroke-opacity="1" stroke-width="3.2"/>
<circle clip-path="url(#clip022)" cx="2096.29" cy="504.856" r="14" fill="#009af9" fill-rule="evenodd" fill-opacity="1" stroke="#000000" stroke-opacity="1" stroke-width="3.2"/>
<circle clip-path="url(#clip022)" cx="475.347" cy="390.18" r="14" fill="#009af9" fill-rule="evenodd" fill-opacity="1" stroke="#000000" stroke-opacity="1" stroke-width="3.2"/>
<circle clip-path="url(#clip022)" cx="336.672" cy="529.6" r="14" fill="#009af9" fill-rule="evenodd" fill-opacity="1" stroke="#000000" stroke-opacity="1" stroke-width="3.2"/>
<circle clip-path="url(#clip022)" cx="846.763" cy="126.216" r="14" fill="#009af9" fill-rule="evenodd" fill-opacity="1" stroke="#000000" stroke-opacity="1" stroke-width="3.2"/>
<circle clip-path="url(#clip022)" cx="894.647" cy="1339.7" r="14" fill="#009af9" fill-rule="evenodd" fill-opacity="1" stroke="#000000" stroke-opacity="1" stroke-width="3.2"/>
<circle clip-path="url(#clip022)" cx="1663.47" cy="159.526" r="14" fill="#009af9" fill-rule="evenodd" fill-opacity="1" stroke="#000000" stroke-opacity="1" stroke-width="3.2"/>
<circle clip-path="url(#clip022)" cx="363.42" cy="620.218" r="14" fill="#009af9" fill-rule="evenodd" fill-opacity="1" stroke="#000000" stroke-opacity="1" stroke-width="3.2"/>
<circle clip-path="url(#clip022)" cx="784.686" cy="1255.14" r="14" fill="#009af9" fill-rule="evenodd" fill-opacity="1" stroke="#000000" stroke-opacity="1" stroke-width="3.2"/>
<path clip-path="url(#clip020)" d="
M1986.32 198.898 L2280.29 198.898 L2280.29 95.2176 L1986.32 95.2176  Z
  " fill="#ffffff" fill-rule="evenodd" fill-opacity="1"/>
<polyline clip-path="url(#clip020)" style="stroke:#000000; stroke-linecap:butt; stroke-linejoin:round; stroke-width:4; stroke-opacity:1; fill:none" points="
  1986.32,198.898 2280.29,198.898 2280.29,95.2176 1986.32,95.2176 1986.32,198.898 
  "/>
<circle clip-path="url(#clip020)" cx="2082.94" cy="147.058" r="23" fill="#009af9" fill-rule="evenodd" fill-opacity="1" stroke="#000000" stroke-opacity="1" stroke-width="5.12"/>
<path clip-path="url(#clip020)" d="M2193.4 166.745 Q2191.59 171.375 2189.88 172.787 Q2188.17 174.199 2185.29 174.199 L2181.89 174.199 L2181.89 170.634 L2184.39 170.634 Q2186.15 170.634 2187.12 169.8 Q2188.1 168.967 2189.28 165.865 L2190.04 163.921 L2179.55 138.412 L2184.07 138.412 L2192.17 158.689 L2200.27 138.412 L2204.79 138.412 L2193.4 166.745 Z" fill="#000000" fill-rule="evenodd" fill-opacity="1" /><path clip-path="url(#clip020)" d="M2212.08 160.402 L2219.72 160.402 L2219.72 134.037 L2211.41 135.703 L2211.41 131.444 L2219.67 129.778 L2224.35 129.778 L2224.35 160.402 L2231.98 160.402 L2231.98 164.338 L2212.08 164.338 L2212.08 160.402 Z" fill="#000000" fill-rule="evenodd" fill-opacity="1" /></svg>
